<svg width="19" height="18" viewBox="0 0 19 18" fill="none" xmlns="http://www.w3.org/2000/svg">
<path d="M11.7049 3.8925C11.9884 3.56571 12.2046 3.18613 12.341 2.77555C12.4775 2.36498 12.5314 1.9315 12.4999 1.5C11.6294 1.57027 10.8214 1.97967 10.2499 2.64C9.9762 2.95648 9.76881 3.32466 9.63998 3.72273C9.51115 4.12081 9.46351 4.54068 9.49987 4.9575C9.92448 4.96104 10.3442 4.86682 10.7266 4.68214C11.1089 4.49747 11.4437 4.22728 11.7049 3.8925ZM13.5949 9.4725C13.5999 8.8978 13.7513 8.33386 14.0347 7.8339C14.3182 7.33394 14.7243 6.91444 15.2149 6.615C14.9053 6.16893 14.496 5.80113 14.0196 5.54076C13.5431 5.28039 13.0125 5.13461 12.4699 5.115C11.2999 4.995 10.2199 5.7975 9.59737 5.7975C8.97487 5.7975 8.09737 5.13 7.12237 5.145C6.48497 5.166 5.86389 5.35184 5.31971 5.68439C4.77553 6.01694 4.32683 6.48486 4.01737 7.0425C2.69737 9.3375 3.67987 12.75 4.99987 14.6025C5.59987 15.51 6.34987 16.5375 7.33987 16.5C8.32987 16.4625 8.65237 15.885 9.79987 15.885C10.9474 15.885 11.2999 16.5 12.2749 16.4775C13.2499 16.455 13.9399 15.5475 14.5699 14.64C15.0162 13.9811 15.3648 13.2612 15.6049 12.5025C15.0105 12.249 14.5034 11.827 14.1462 11.2885C13.7889 10.75 13.5973 10.1187 13.5949 9.4725Z" fill="black"/>
</svg>
