<svg width="160" height="26" viewBox="0 0 160 26" fill="none" xmlns="http://www.w3.org/2000/svg">
<path d="M11.5781 5.85938C10.651 5.85938 9.82812 6.04167 9.10938 6.40625C8.40104 6.76042 7.80208 7.27604 7.3125 7.95312C6.83333 8.63021 6.46875 9.44792 6.21875 10.4062C5.96875 11.3646 5.84375 12.4427 5.84375 13.6406C5.84375 15.2552 6.04167 16.6354 6.4375 17.7812C6.84375 18.9167 7.46875 19.7865 8.3125 20.3906C9.15625 20.9844 10.2448 21.2812 11.5781 21.2812C12.5052 21.2812 13.4323 21.1771 14.3594 20.9688C15.2969 20.7604 16.3125 20.4635 17.4062 20.0781V24.1406C16.3958 24.5573 15.401 24.8542 14.4219 25.0312C13.4427 25.2188 12.3438 25.3125 11.125 25.3125C8.77083 25.3125 6.83333 24.8281 5.3125 23.8594C3.80208 22.8802 2.68229 21.5156 1.95312 19.7656C1.22396 18.0052 0.859375 15.9531 0.859375 13.6094C0.859375 11.8802 1.09375 10.2969 1.5625 8.85938C2.03125 7.42188 2.71875 6.17708 3.625 5.125C4.53125 4.07292 5.65104 3.26042 6.98438 2.6875C8.31771 2.11458 9.84896 1.82812 11.5781 1.82812C12.7135 1.82812 13.849 1.97396 14.9844 2.26562C16.1302 2.54688 17.224 2.9375 18.2656 3.4375L16.7031 7.375C15.849 6.96875 14.9896 6.61458 14.125 6.3125C13.2604 6.01042 12.4115 5.85938 11.5781 5.85938ZM26.6719 0.6875V5.64062C26.6719 6.50521 26.6406 7.32812 26.5781 8.10938C26.526 8.89062 26.4844 9.44271 26.4531 9.76562H26.7031C27.0781 9.16146 27.5208 8.67188 28.0312 8.29688C28.5521 7.92188 29.125 7.64583 29.75 7.46875C30.375 7.29167 31.0469 7.20312 31.7656 7.20312C33.026 7.20312 34.125 7.42708 35.0625 7.875C36 8.3125 36.7292 9.00521 37.25 9.95312C37.7708 10.8906 38.0312 12.1094 38.0312 13.6094V25H33.2656V14.7969C33.2656 13.5469 33.0365 12.6042 32.5781 11.9688C32.1198 11.3333 31.4115 11.0156 30.4531 11.0156C29.4948 11.0156 28.7396 11.2396 28.1875 11.6875C27.6354 12.125 27.2448 12.776 27.0156 13.6406C26.7865 14.4948 26.6719 15.5417 26.6719 16.7812V25H21.9062V0.6875H26.6719ZM58.8125 16.2344C58.8125 17.6927 58.6146 18.9844 58.2188 20.1094C57.8333 21.2344 57.2656 22.1875 56.5156 22.9688C55.776 23.7396 54.8802 24.3229 53.8281 24.7188C52.7865 25.1146 51.6094 25.3125 50.2969 25.3125C49.0677 25.3125 47.9375 25.1146 46.9062 24.7188C45.8854 24.3229 44.9948 23.7396 44.2344 22.9688C43.4844 22.1875 42.901 21.2344 42.4844 20.1094C42.0781 18.9844 41.875 17.6927 41.875 16.2344C41.875 14.2969 42.2188 12.6562 42.9062 11.3125C43.5938 9.96875 44.5729 8.94792 45.8438 8.25C47.1146 7.55208 48.6302 7.20312 50.3906 7.20312C52.026 7.20312 53.474 7.55208 54.7344 8.25C56.0052 8.94792 57 9.96875 57.7188 11.3125C58.4479 12.6562 58.8125 14.2969 58.8125 16.2344ZM46.7344 16.2344C46.7344 17.3802 46.8594 18.3438 47.1094 19.125C47.3594 19.9062 47.75 20.4948 48.2812 20.8906C48.8125 21.2865 49.5052 21.4844 50.3594 21.4844C51.2031 21.4844 51.8854 21.2865 52.4062 20.8906C52.9375 20.4948 53.3229 19.9062 53.5625 19.125C53.8125 18.3438 53.9375 17.3802 53.9375 16.2344C53.9375 15.0781 53.8125 14.1198 53.5625 13.3594C53.3229 12.5885 52.9375 12.0104 52.4062 11.625C51.875 11.2396 51.1823 11.0469 50.3281 11.0469C49.0677 11.0469 48.151 11.4792 47.5781 12.3438C47.0156 13.2083 46.7344 14.5052 46.7344 16.2344ZM83.2656 7.20312C85.2448 7.20312 86.7396 7.71354 87.75 8.73438C88.7708 9.74479 89.2812 11.3698 89.2812 13.6094V25H84.5V14.7969C84.5 13.5469 84.2865 12.6042 83.8594 11.9688C83.4323 11.3333 82.7708 11.0156 81.875 11.0156C80.6146 11.0156 79.7188 11.4688 79.1875 12.375C78.6562 13.2708 78.3906 14.5573 78.3906 16.2344V25H73.625V14.7969C73.625 13.9635 73.5312 13.2656 73.3438 12.7031C73.1562 12.1406 72.8698 11.7188 72.4844 11.4375C72.099 11.1562 71.6042 11.0156 71 11.0156C70.1146 11.0156 69.4167 11.2396 68.9062 11.6875C68.4062 12.125 68.0469 12.776 67.8281 13.6406C67.6198 14.4948 67.5156 15.5417 67.5156 16.7812V25H62.75V7.53125H66.3906L67.0312 9.76562H67.2969C67.651 9.16146 68.0938 8.67188 68.625 8.29688C69.1667 7.92188 69.7604 7.64583 70.4062 7.46875C71.0521 7.29167 71.7083 7.20312 72.375 7.20312C73.6562 7.20312 74.7396 7.41146 75.625 7.82812C76.5208 8.24479 77.2083 8.89062 77.6875 9.76562H78.1094C78.6302 8.86979 79.3646 8.21875 80.3125 7.8125C81.2708 7.40625 82.2552 7.20312 83.2656 7.20312Z" fill="#F6A973"/>
<path d="M101.391 7.20312C103.005 7.20312 104.396 7.51562 105.562 8.14062C106.729 8.75521 107.63 9.65104 108.266 10.8281C108.901 12.0052 109.219 13.4427 109.219 15.1406V17.4531H97.9531C98.0052 18.7969 98.4062 19.8542 99.1562 20.625C99.9167 21.3854 100.969 21.7656 102.312 21.7656C103.427 21.7656 104.448 21.651 105.375 21.4219C106.302 21.1927 107.255 20.849 108.234 20.3906V24.0781C107.37 24.5052 106.464 24.8177 105.516 25.0156C104.578 25.2135 103.438 25.3125 102.094 25.3125C100.344 25.3125 98.7917 24.9896 97.4375 24.3438C96.0938 23.6979 95.0365 22.7135 94.2656 21.3906C93.5052 20.0677 93.125 18.401 93.125 16.3906C93.125 14.349 93.4688 12.651 94.1562 11.2969C94.8542 9.93229 95.8229 8.91146 97.0625 8.23438C98.3021 7.54688 99.7448 7.20312 101.391 7.20312ZM101.422 10.5938C100.495 10.5938 99.724 10.8906 99.1094 11.4844C98.5052 12.0781 98.1562 13.0104 98.0625 14.2812H104.75C104.74 13.5729 104.609 12.9427 104.359 12.3906C104.12 11.8385 103.755 11.401 103.266 11.0781C102.786 10.7552 102.172 10.5938 101.422 10.5938ZM122.844 7.20312C123.083 7.20312 123.359 7.21875 123.672 7.25C123.995 7.27083 124.255 7.30208 124.453 7.34375L124.094 11.8125C123.938 11.7604 123.714 11.724 123.422 11.7031C123.141 11.6719 122.896 11.6562 122.688 11.6562C122.073 11.6562 121.474 11.7344 120.891 11.8906C120.318 12.0469 119.802 12.3021 119.344 12.6562C118.885 13 118.521 13.4583 118.25 14.0312C117.99 14.5938 117.859 15.2865 117.859 16.1094V25H113.094V7.53125H116.703L117.406 10.4688H117.641C117.984 9.875 118.411 9.33333 118.922 8.84375C119.443 8.34375 120.031 7.94792 120.688 7.65625C121.354 7.35417 122.073 7.20312 122.844 7.20312ZM134.719 25.3125C132.99 25.3125 131.516 25 130.297 24.375C129.078 23.7396 128.151 22.7604 127.516 21.4375C126.88 20.1146 126.562 18.4219 126.562 16.3594C126.562 14.224 126.922 12.4844 127.641 11.1406C128.37 9.78646 129.375 8.79167 130.656 8.15625C131.948 7.52083 133.443 7.20312 135.141 7.20312C136.349 7.20312 137.391 7.32292 138.266 7.5625C139.151 7.79167 139.922 8.06771 140.578 8.39062L139.172 12.0781C138.422 11.776 137.724 11.5312 137.078 11.3438C136.432 11.1458 135.786 11.0469 135.141 11.0469C134.307 11.0469 133.615 11.2448 133.062 11.6406C132.51 12.026 132.099 12.6094 131.828 13.3906C131.557 14.1719 131.422 15.151 131.422 16.3281C131.422 17.4844 131.568 18.4427 131.859 19.2031C132.151 19.9635 132.573 20.5312 133.125 20.9062C133.677 21.2708 134.349 21.4531 135.141 21.4531C136.13 21.4531 137.01 21.3229 137.781 21.0625C138.552 20.7917 139.302 20.4167 140.031 19.9375V24.0156C139.302 24.474 138.536 24.8021 137.734 25C136.943 25.2083 135.938 25.3125 134.719 25.3125ZM151.297 7.20312C152.911 7.20312 154.302 7.51562 155.469 8.14062C156.635 8.75521 157.536 9.65104 158.172 10.8281C158.807 12.0052 159.125 13.4427 159.125 15.1406V17.4531H147.859C147.911 18.7969 148.312 19.8542 149.062 20.625C149.823 21.3854 150.875 21.7656 152.219 21.7656C153.333 21.7656 154.354 21.651 155.281 21.4219C156.208 21.1927 157.161 20.849 158.141 20.3906V24.0781C157.276 24.5052 156.37 24.8177 155.422 25.0156C154.484 25.2135 153.344 25.3125 152 25.3125C150.25 25.3125 148.698 24.9896 147.344 24.3438C146 23.6979 144.943 22.7135 144.172 21.3906C143.411 20.0677 143.031 18.401 143.031 16.3906C143.031 14.349 143.375 12.651 144.062 11.2969C144.76 9.93229 145.729 8.91146 146.969 8.23438C148.208 7.54688 149.651 7.20312 151.297 7.20312ZM151.328 10.5938C150.401 10.5938 149.63 10.8906 149.016 11.4844C148.411 12.0781 148.062 13.0104 147.969 14.2812H154.656C154.646 13.5729 154.516 12.9427 154.266 12.3906C154.026 11.8385 153.661 11.401 153.172 11.0781C152.693 10.7552 152.078 10.5938 151.328 10.5938Z" fill="white"/>
</svg>
