<svg width="182" height="56" viewBox="0 0 182 56" fill="none" xmlns="http://www.w3.org/2000/svg">
<path d="M14.1504 20.4668C13.1074 20.4668 12.1816 20.6719 11.373 21.082C10.5762 21.4805 9.90234 22.0605 9.35156 22.8223C8.8125 23.584 8.40234 24.5039 8.12109 25.582C7.83984 26.6602 7.69922 27.873 7.69922 29.2207C7.69922 31.0371 7.92188 32.5898 8.36719 33.8789C8.82422 35.1562 9.52734 36.1348 10.4766 36.8145C11.4258 37.4824 12.6504 37.8164 14.1504 37.8164C15.1934 37.8164 16.2363 37.6992 17.2793 37.4648C18.334 37.2305 19.4766 36.8965 20.707 36.4629V41.0332C19.5703 41.502 18.4512 41.8359 17.3496 42.0352C16.248 42.2461 15.0117 42.3516 13.6406 42.3516C10.9922 42.3516 8.8125 41.8066 7.10156 40.7168C5.40234 39.6152 4.14258 38.0801 3.32227 36.1113C2.50195 34.1309 2.0918 31.8223 2.0918 29.1855C2.0918 27.2402 2.35547 25.459 2.88281 23.8418C3.41016 22.2246 4.18359 20.8242 5.20312 19.6406C6.22266 18.457 7.48242 17.543 8.98242 16.8984C10.4824 16.2539 12.2051 15.9316 14.1504 15.9316C15.4277 15.9316 16.7051 16.0957 17.9824 16.4238C19.2715 16.7402 20.502 17.1797 21.6738 17.7422L19.916 22.1719C18.9551 21.7148 17.9883 21.3164 17.0156 20.9766C16.043 20.6367 15.0879 20.4668 14.1504 20.4668ZM31.1309 14.6484V20.2207C31.1309 21.1934 31.0957 22.1191 31.0254 22.998C30.9668 23.877 30.9199 24.498 30.8848 24.8613H31.166C31.5879 24.1816 32.0859 23.6309 32.6602 23.209C33.2461 22.7871 33.8906 22.4766 34.5938 22.2773C35.2969 22.0781 36.0527 21.9785 36.8613 21.9785C38.2793 21.9785 39.5156 22.2305 40.5703 22.7344C41.625 23.2266 42.4453 24.0059 43.0312 25.0723C43.6172 26.127 43.9102 27.498 43.9102 29.1855V42H38.5488V30.5215C38.5488 29.1152 38.291 28.0547 37.7754 27.3398C37.2598 26.625 36.4629 26.2676 35.3848 26.2676C34.3066 26.2676 33.457 26.5195 32.8359 27.0234C32.2148 27.5156 31.7754 28.248 31.5176 29.2207C31.2598 30.1816 31.1309 31.3594 31.1309 32.7539V42H25.7695V14.6484H31.1309ZM67.2891 32.1387C67.2891 33.7793 67.0664 35.2324 66.6211 36.498C66.1875 37.7637 65.5488 38.8359 64.7051 39.7148C63.873 40.582 62.8652 41.2383 61.6816 41.6836C60.5098 42.1289 59.1855 42.3516 57.709 42.3516C56.3262 42.3516 55.0547 42.1289 53.8945 41.6836C52.7461 41.2383 51.7441 40.582 50.8887 39.7148C50.0449 38.8359 49.3887 37.7637 48.9199 36.498C48.4629 35.2324 48.2344 33.7793 48.2344 32.1387C48.2344 29.959 48.6211 28.1133 49.3945 26.6016C50.168 25.0898 51.2695 23.9414 52.6992 23.1562C54.1289 22.3711 55.834 21.9785 57.8145 21.9785C59.6543 21.9785 61.2832 22.3711 62.7012 23.1562C64.1309 23.9414 65.25 25.0898 66.0586 26.6016C66.8789 28.1133 67.2891 29.959 67.2891 32.1387ZM53.7012 32.1387C53.7012 33.4277 53.8418 34.5117 54.123 35.3906C54.4043 36.2695 54.8438 36.9316 55.4414 37.377C56.0391 37.8223 56.8184 38.0449 57.7793 38.0449C58.7285 38.0449 59.4961 37.8223 60.082 37.377C60.6797 36.9316 61.1133 36.2695 61.3828 35.3906C61.6641 34.5117 61.8047 33.4277 61.8047 32.1387C61.8047 30.8379 61.6641 29.7598 61.3828 28.9043C61.1133 28.0371 60.6797 27.3867 60.082 26.9531C59.4844 26.5195 58.7051 26.3027 57.7441 26.3027C56.3262 26.3027 55.2949 26.7891 54.6504 27.7617C54.0176 28.7344 53.7012 30.1934 53.7012 32.1387ZM94.7988 21.9785C97.0254 21.9785 98.707 22.5527 99.8438 23.7012C100.992 24.8379 101.566 26.666 101.566 29.1855V42H96.1875V30.5215C96.1875 29.1152 95.9473 28.0547 95.4668 27.3398C94.9863 26.625 94.2422 26.2676 93.2344 26.2676C91.8164 26.2676 90.8086 26.7773 90.2109 27.7969C89.6133 28.8047 89.3145 30.252 89.3145 32.1387V42H83.9531V30.5215C83.9531 29.584 83.8477 28.7988 83.6367 28.166C83.4258 27.5332 83.1035 27.0586 82.6699 26.7422C82.2363 26.4258 81.6797 26.2676 81 26.2676C80.0039 26.2676 79.2188 26.5195 78.6445 27.0234C78.082 27.5156 77.6777 28.248 77.4316 29.2207C77.1973 30.1816 77.0801 31.3594 77.0801 32.7539V42H71.7188V22.3477H75.8145L76.5352 24.8613H76.834C77.2324 24.1816 77.7305 23.6309 78.3281 23.209C78.9375 22.7871 79.6055 22.4766 80.332 22.2773C81.0586 22.0781 81.7969 21.9785 82.5469 21.9785C83.9883 21.9785 85.207 22.2129 86.2031 22.6816C87.2109 23.1504 87.9844 23.877 88.5234 24.8613H88.998C89.584 23.8535 90.4102 23.1211 91.4766 22.6641C92.5547 22.207 93.6621 21.9785 94.7988 21.9785Z" fill="#F6A973"/>
<path d="M115.189 21.9785C117.006 21.9785 118.57 22.3301 119.883 23.0332C121.195 23.7246 122.209 24.7324 122.924 26.0566C123.639 27.3809 123.996 28.998 123.996 30.9082V33.5098H111.322C111.381 35.0215 111.832 36.2109 112.676 37.0781C113.531 37.9336 114.715 38.3613 116.227 38.3613C117.48 38.3613 118.629 38.2324 119.672 37.9746C120.715 37.7168 121.787 37.3301 122.889 36.8145V40.9629C121.916 41.4434 120.896 41.7949 119.83 42.0176C118.775 42.2402 117.492 42.3516 115.98 42.3516C114.012 42.3516 112.266 41.9883 110.742 41.2617C109.23 40.5352 108.041 39.4277 107.174 37.9395C106.318 36.4512 105.891 34.5762 105.891 32.3145C105.891 30.0176 106.277 28.1074 107.051 26.584C107.836 25.0488 108.926 23.9004 110.32 23.1387C111.715 22.3652 113.338 21.9785 115.189 21.9785ZM115.225 25.793C114.182 25.793 113.314 26.127 112.623 26.7949C111.943 27.4629 111.551 28.5117 111.445 29.9414H118.969C118.957 29.1445 118.811 28.4355 118.529 27.8145C118.26 27.1934 117.85 26.7012 117.299 26.3379C116.76 25.9746 116.068 25.793 115.225 25.793ZM139.324 21.9785C139.594 21.9785 139.904 21.9961 140.256 22.0312C140.619 22.0547 140.912 22.0898 141.135 22.1367L140.73 27.1641C140.555 27.1055 140.303 27.0645 139.975 27.041C139.658 27.0059 139.383 26.9883 139.148 26.9883C138.457 26.9883 137.783 27.0762 137.127 27.252C136.482 27.4277 135.902 27.7148 135.387 28.1133C134.871 28.5 134.461 29.0156 134.156 29.6602C133.863 30.293 133.717 31.0723 133.717 31.998V42H128.355V22.3477H132.416L133.207 25.6523H133.471C133.857 24.9844 134.338 24.375 134.912 23.8242C135.498 23.2617 136.16 22.8164 136.898 22.4883C137.648 22.1484 138.457 21.9785 139.324 21.9785ZM152.684 42.3516C150.738 42.3516 149.08 42 147.709 41.2969C146.338 40.582 145.295 39.4805 144.58 37.9922C143.865 36.5039 143.508 34.5996 143.508 32.2793C143.508 29.877 143.912 27.9199 144.721 26.4082C145.541 24.8848 146.672 23.7656 148.113 23.0508C149.566 22.3359 151.248 21.9785 153.158 21.9785C154.518 21.9785 155.689 22.1133 156.674 22.3828C157.67 22.6406 158.537 22.9512 159.275 23.3145L157.693 27.4629C156.85 27.123 156.064 26.8477 155.338 26.6367C154.611 26.4141 153.885 26.3027 153.158 26.3027C152.221 26.3027 151.441 26.5254 150.82 26.9707C150.199 27.4043 149.736 28.0605 149.432 28.9395C149.127 29.8184 148.975 30.9199 148.975 32.2441C148.975 33.5449 149.139 34.623 149.467 35.4785C149.795 36.334 150.27 36.9727 150.891 37.3945C151.512 37.8047 152.268 38.0098 153.158 38.0098C154.271 38.0098 155.262 37.8633 156.129 37.5703C156.996 37.2656 157.84 36.8438 158.66 36.3047V40.8926C157.84 41.4082 156.979 41.7773 156.076 42C155.186 42.2344 154.055 42.3516 152.684 42.3516ZM171.334 21.9785C173.15 21.9785 174.715 22.3301 176.027 23.0332C177.34 23.7246 178.354 24.7324 179.068 26.0566C179.783 27.3809 180.141 28.998 180.141 30.9082V33.5098H167.467C167.525 35.0215 167.977 36.2109 168.82 37.0781C169.676 37.9336 170.859 38.3613 172.371 38.3613C173.625 38.3613 174.773 38.2324 175.816 37.9746C176.859 37.7168 177.932 37.3301 179.033 36.8145V40.9629C178.061 41.4434 177.041 41.7949 175.975 42.0176C174.92 42.2402 173.637 42.3516 172.125 42.3516C170.156 42.3516 168.41 41.9883 166.887 41.2617C165.375 40.5352 164.186 39.4277 163.318 37.9395C162.463 36.4512 162.035 34.5762 162.035 32.3145C162.035 30.0176 162.422 28.1074 163.195 26.584C163.98 25.0488 165.07 23.9004 166.465 23.1387C167.859 22.3652 169.482 21.9785 171.334 21.9785ZM171.369 25.793C170.326 25.793 169.459 26.127 168.768 26.7949C168.088 27.4629 167.695 28.5117 167.59 29.9414H175.113C175.102 29.1445 174.955 28.4355 174.674 27.8145C174.404 27.1934 173.994 26.7012 173.443 26.3379C172.904 25.9746 172.213 25.793 171.369 25.793Z" fill="#000032"/>
</svg>
