<svg width="18" height="18" viewBox="0 0 18 18" fill="none" xmlns="http://www.w3.org/2000/svg">
<path d="M15.5743 -0.00012207H2.42554C1.08598 -0.00012207 0 1.08581 0 2.42541V15.5743C0 16.9138 1.08593 17.9998 2.42554 17.9998H8.91041L8.92151 11.5676H7.25041C7.03324 11.5676 6.85698 11.392 6.85614 11.1748L6.84813 9.10146C6.84729 8.88313 7.02408 8.70568 7.24244 8.70568H8.91049V6.70226C8.91049 4.37733 10.3304 3.1114 12.4044 3.1114H14.1063C14.324 3.1114 14.5005 3.28792 14.5005 3.50571V5.25398C14.5005 5.47168 14.3241 5.64816 14.1065 5.64829L13.062 5.64878C11.9342 5.64878 11.7158 6.18474 11.7158 6.9713V8.70568H14.1942C14.4303 8.70568 14.6135 8.91193 14.5857 9.14646L14.3399 11.2198C14.3164 11.4182 14.1482 11.5677 13.9484 11.5677H11.7268L11.7158 17.9999H15.5744C16.914 17.9999 17.9999 16.914 17.9999 15.5744V2.42541C17.9998 1.08581 16.9139 -0.00012207 15.5743 -0.00012207Z" fill="#1976D2"/>
</svg>
