<svg width="19" height="18" viewBox="0 0 19 18" fill="none" xmlns="http://www.w3.org/2000/svg">
<path d="M3.64989 8.99995V9C3.64996 9.66377 3.76067 10.3032 3.96571 10.8994L3.47678 12.7246L1.87371 12.7585C1.31433 11.6258 1 10.3504 1 8.99995C1 7.72032 1.28219 6.50809 1.78799 5.42079L3.19487 5.67872L3.90433 7.28854C3.73903 7.83013 3.64989 8.40499 3.64989 8.99995Z" fill="#FBBB00" stroke="#074EE8"/>
<path d="M18.3426 7.3186C18.446 7.86301 18.4999 8.42529 18.4999 8.99994C18.4999 9.64426 18.4322 10.2728 18.3031 10.8791C17.865 12.9421 16.7202 14.7436 15.1344 16.0184L15.1338 16.0179L12.5659 15.8869L12.2025 13.6181C13.2547 13.001 14.0771 12.0352 14.5103 10.8791H9.69775V7.3186H14.5805H18.3426Z" fill="#518EF8"/>
<path d="M15.1341 16.0179L15.1345 16.0184C13.5922 17.2581 11.6329 17.9999 9.50017 17.9999C6.07275 17.9999 3.09288 16.0842 1.57275 13.265L4.48935 10.8776C5.24939 12.906 7.20615 14.35 9.50017 14.35C10.4862 14.35 11.41 14.0834 12.2026 13.6181L15.1341 16.0179Z" fill="#28B446"/>
<path d="M15.2447 2.07185L12.3291 4.45881C11.5088 3.94602 10.539 3.6498 9.50003 3.6498C7.1541 3.6498 5.16073 5.16 4.43877 7.26119L1.50684 4.86087H1.50635C3.00421 1.97295 6.02168 -0.00012207 9.50003 -0.00012207C11.6837 -0.00012207 13.686 0.777746 15.2447 2.07185Z" fill="#F14336"/>
</svg>
