<svg width="14" height="14" viewBox="0 0 14 14" fill="none" xmlns="http://www.w3.org/2000/svg">
<path d="M6.99992 13.6667C3.31792 13.6667 0.333252 10.682 0.333252 7.00004C0.333252 3.31804 3.31792 0.333374 6.99992 0.333374C10.6819 0.333374 13.6666 3.31804 13.6666 7.00004C13.6666 10.682 10.6819 13.6667 6.99992 13.6667ZM3.66659 7.00004C3.66659 7.8841 4.01777 8.73194 4.6429 9.35706C5.26802 9.98218 6.11586 10.3334 6.99992 10.3334C7.88397 10.3334 8.73182 9.98218 9.35694 9.35706C9.98206 8.73194 10.3333 7.8841 10.3333 7.00004H8.99992C8.99992 7.53047 8.78921 8.03918 8.41413 8.41425C8.03906 8.78933 7.53035 9.00004 6.99992 9.00004C6.46949 9.00004 5.96078 8.78933 5.5857 8.41425C5.21063 8.03918 4.99992 7.53047 4.99992 7.00004H3.66659Z" fill="#000032"/>
</svg>
