<svg width="150" height="41" viewBox="0 0 150 41" fill="none" xmlns="http://www.w3.org/2000/svg">
<path d="M129.648 0.0494464H20.3582C19.9599 0.0494464 19.5663 0.0494464 19.1689 0.0514464C18.8364 0.0534464 18.5064 0.0592564 18.1706 0.0641464C17.4411 0.0720482 16.7134 0.131123 15.9936 0.240856C15.2749 0.352979 14.5787 0.564362 13.9286 0.867856C13.2792 1.17392 12.6859 1.57161 12.1701 2.04652C11.6516 2.52008 11.2194 3.06746 10.8901 3.66761C10.5599 4.26656 10.331 4.90838 10.2111 5.57093C10.0902 6.23263 10.0251 6.90197 10.0165 7.57293C10.0064 7.87953 10.0053 8.18715 10 8.49379V31.608C10.0053 31.9185 10.0064 32.2193 10.0165 32.5299C10.0251 33.2009 10.0902 33.8702 10.2111 34.5318C10.3306 35.1948 10.5596 35.837 10.8901 36.4361C11.2193 37.0343 11.6515 37.5795 12.1701 38.0504C12.6839 38.5275 13.2776 38.9254 13.9286 39.2291C14.5787 39.5335 15.2748 39.7461 15.9936 39.8599C16.7135 39.9688 17.4412 40.0279 18.1706 40.0367C18.5064 40.0435 18.8364 40.0474 19.1689 40.0474C19.5663 40.0494 19.9599 40.0494 20.3582 40.0494H129.648C130.038 40.0494 130.435 40.0494 130.825 40.0474C131.156 40.0474 131.496 40.0435 131.827 40.0367C132.555 40.0284 133.281 39.9693 134 39.8599C134.721 39.7453 135.419 39.5327 136.073 39.2291C136.723 38.9253 137.316 38.5273 137.829 38.0504C138.347 37.5777 138.78 37.0329 139.113 36.4361C139.441 35.8365 139.668 35.1944 139.786 34.5318C139.907 33.8701 139.974 33.2009 139.987 32.5299C139.992 32.2193 139.992 31.9185 139.992 31.608C140 31.2447 140 30.8834 140 30.5142V9.58558C140 9.21937 140 8.85609 139.992 8.49379C139.992 8.18715 139.992 7.87953 139.987 7.57289C139.974 6.90187 139.907 6.23268 139.786 5.57089C139.668 4.90873 139.441 4.26695 139.113 3.66757C138.442 2.46464 137.379 1.48547 136.073 0.867766C135.419 0.565014 134.721 0.353687 134 0.240766C133.281 0.130549 132.555 0.0714542 131.827 0.0640064C131.496 0.0591264 131.156 0.0532664 130.825 0.0513164C130.435 0.0493164 130.038 0.0493164 129.648 0.0493164V0.0494464Z" fill="#A6A6A6"/>
<path d="M19.1741 39.1746C18.8431 39.1746 18.5201 39.1707 18.1917 39.1639C17.5114 39.1557 16.8327 39.1012 16.1611 39.0008C15.5349 38.9015 14.9283 38.7168 14.3613 38.4529C13.7994 38.1911 13.287 37.8478 12.8436 37.4363C12.3938 37.0295 12.0193 36.5578 11.7349 36.0398C11.4475 35.5183 11.2485 34.9595 11.145 34.3826C11.0333 33.7627 10.9728 33.1359 10.9641 32.5076C10.9573 32.2967 10.9482 31.5945 10.9482 31.5945V8.4939C10.9482 8.4939 10.9578 7.80249 10.9642 7.59936C10.9725 6.97204 11.0326 6.34621 11.144 5.72729C11.2477 5.14881 11.4468 4.58831 11.7344 4.06519C12.0177 3.5475 12.3901 3.07542 12.8373 2.66724C13.2839 2.25518 13.7979 1.91016 14.3607 1.64477C14.9264 1.38165 15.5319 1.19829 16.1568 1.10083C16.8306 0.999397 17.5117 0.944557 18.1943 0.936771L19.1746 0.924561H130.82L131.812 0.937261C132.488 0.94466 133.163 0.999011 133.831 1.09985C134.462 1.19854 135.074 1.38318 135.646 1.6477C136.773 2.18255 137.691 3.02872 138.269 4.06763C138.552 4.58714 138.749 5.14307 138.851 5.71655C138.964 6.34055 139.027 6.9713 139.04 7.60376C139.043 7.88696 139.043 8.19116 139.043 8.4939C139.051 8.8689 139.051 9.22583 139.051 9.58569V30.5144C139.051 30.8777 139.051 31.2322 139.043 31.5896C139.043 31.9148 139.043 32.2127 139.039 32.5193C139.026 33.1404 138.964 33.7599 138.853 34.3728C138.752 34.9538 138.554 35.5171 138.266 36.0428C137.98 36.5552 137.608 37.0228 137.163 37.4285C136.719 37.8422 136.206 38.1875 135.643 38.451C135.072 38.717 134.461 38.9023 133.831 39.0008C133.159 39.1017 132.48 39.1562 131.8 39.1639C131.482 39.1707 131.149 39.1746 130.825 39.1746L129.647 39.1766L19.1741 39.1746Z" fill="black"/>
<path d="M36.9084 20.3501C36.9201 19.5155 37.161 18.6971 37.6086 17.9711C38.0562 17.2452 38.696 16.6352 39.4685 16.1981C38.9778 15.5529 38.3304 15.022 37.5777 14.6474C36.825 14.2729 35.9878 14.065 35.1326 14.0404C33.3084 13.8641 31.5398 15.0452 30.6102 15.0452C29.6626 15.0452 28.2313 14.0579 26.69 14.0871C25.6931 14.1167 24.7215 14.3836 23.8699 14.8616C23.0183 15.3397 22.3158 16.0127 21.8307 16.815C19.7297 20.1634 21.2969 25.0844 23.3095 27.791C24.3165 29.1164 25.4933 30.5968 27.0332 30.5443C28.5401 30.4868 29.1028 29.6599 30.9218 29.6599C32.7238 29.6599 33.2518 30.5443 34.8229 30.511C36.4399 30.4868 37.4586 29.1797 38.4303 27.8418C39.1537 26.8975 39.7105 25.8537 40.0798 24.7493C39.1404 24.3836 38.3388 23.7714 37.7748 22.9891C37.2108 22.2068 36.9095 21.289 36.9084 20.3501Z" fill="white"/>
<path d="M33.941 12.2604C34.8227 11.2862 35.257 10.034 35.1518 8.76978C33.8049 8.9 32.5607 9.49255 31.6672 10.4294C31.2303 10.8871 30.8957 11.4195 30.6825 11.9963C30.4693 12.573 30.3817 13.1828 30.4247 13.7908C31.0984 13.7972 31.7649 13.6627 32.374 13.3977C32.9831 13.1326 33.5189 12.7437 33.941 12.2604Z" fill="white"/>
<path d="M55.9561 27.1892H50.8138L49.5789 30.5457H47.4009L52.2715 18.1277H54.5345L59.4051 30.5457H57.1899L55.9561 27.1892ZM51.3464 25.6404H55.4225L53.4131 20.1931H53.3569L51.3464 25.6404Z" fill="white"/>
<path d="M69.9242 26.0193C69.9242 28.8327 68.2882 30.6403 65.8195 30.6403C65.1941 30.6705 64.5722 30.5379 64.0249 30.2577C63.4776 29.9776 63.027 29.5612 62.7248 29.0563H62.6781V33.5407H60.6592V21.4919H62.6134V22.9978H62.6505C62.9666 22.4953 63.4248 22.0811 63.9763 21.7993C64.5277 21.5174 65.1519 21.3785 65.7824 21.3972C68.2786 21.3972 69.9242 23.2136 69.9242 26.0193ZM67.849 26.0193C67.849 24.1863 66.8199 22.9812 65.2498 22.9812C63.7072 22.9812 62.6696 24.2116 62.6696 26.0193C62.6696 27.8435 63.7072 29.0652 65.2498 29.0652C66.8199 29.0652 67.849 27.8689 67.849 26.0193Z" fill="white"/>
<path d="M80.7498 26.0192C80.7498 28.8327 79.1139 30.6403 76.6452 30.6403C76.0198 30.6705 75.3979 30.5378 74.8505 30.2577C74.3032 29.9776 73.8527 29.5612 73.5505 29.0563H73.5038V33.5407H71.4849V21.4919H73.4391V22.9978H73.4762C73.7923 22.4953 74.2504 22.0811 74.8019 21.7993C75.3534 21.5174 75.9776 21.3785 76.608 21.3972C79.1044 21.3972 80.7498 23.2136 80.7498 26.0192ZM78.6747 26.0192C78.6747 24.1862 77.6456 22.9812 76.0755 22.9812C74.5329 22.9812 73.4953 24.2116 73.4953 26.0192C73.4953 27.8435 74.5329 29.0651 76.0755 29.0651C77.6456 29.0651 78.6747 27.8689 78.6747 26.0192H78.6747Z" fill="white"/>
<path d="M87.9046 27.0857C88.0542 28.3172 89.3538 29.1257 91.1298 29.1257C92.8315 29.1257 94.0558 28.3172 94.0558 27.2068C94.0558 26.2429 93.3174 25.6658 91.569 25.2703L89.8206 24.8826C87.3434 24.3318 86.1933 23.2654 86.1933 21.5349C86.1933 19.3923 88.2218 17.9207 91.1022 17.9207C93.9528 17.9207 95.907 19.3923 95.9728 21.5349H93.9348C93.8128 20.2957 92.6999 19.5476 91.0735 19.5476C89.4471 19.5476 88.3342 20.3045 88.3342 21.406C88.3342 22.2839 89.045 22.8005 90.7839 23.196L92.2702 23.532C95.0381 24.1345 96.1882 25.158 96.1882 26.9743C96.1882 29.2976 94.1777 30.7527 90.9801 30.7527C87.9884 30.7527 85.9684 29.3318 85.8379 27.0857L87.9046 27.0857Z" fill="white"/>
<path d="M100.545 19.3494V21.4919H102.415V22.9636H100.545V27.9548C100.545 28.7302 100.92 29.0916 101.742 29.0916C101.964 29.088 102.185 29.0736 102.406 29.0486V30.5114C102.036 30.575 101.66 30.6038 101.284 30.5974C99.2931 30.5974 98.5165 29.9089 98.5165 28.153V22.9636H97.0864V21.4919H98.5165V19.3494H100.545Z" fill="white"/>
<path d="M103.499 26.0193C103.499 23.1707 105.321 21.3806 108.163 21.3806C111.015 21.3806 112.829 23.1706 112.829 26.0193C112.829 28.8757 111.025 30.658 108.163 30.658C105.303 30.658 103.499 28.8757 103.499 26.0193ZM110.772 26.0193C110.772 24.0652 109.799 22.9119 108.163 22.9119C106.527 22.9119 105.556 24.074 105.556 26.0193C105.556 27.9812 106.527 29.1257 108.163 29.1257C109.799 29.1257 110.772 27.9812 110.772 26.0193H110.772Z" fill="white"/>
<path d="M114.494 21.4921H116.42V23.0331H116.466C116.597 22.5518 116.903 22.1264 117.334 21.8286C117.765 21.5307 118.294 21.3784 118.832 21.3973C119.065 21.3966 119.297 21.4198 119.524 21.4667V23.2049C119.23 23.1223 118.924 23.0844 118.617 23.0926C118.324 23.0817 118.031 23.1293 117.76 23.2322C117.488 23.3351 117.244 23.4908 117.044 23.6887C116.845 23.8866 116.694 24.1219 116.602 24.3786C116.51 24.6353 116.48 24.9072 116.513 25.1756V30.5458H114.494L114.494 21.4921Z" fill="white"/>
<path d="M128.832 27.8865C128.561 29.53 126.822 30.658 124.597 30.658C121.736 30.658 119.96 28.8933 119.96 26.0623C119.96 23.2224 121.745 21.3806 124.512 21.3806C127.234 21.3806 128.945 23.1013 128.945 25.8464V26.4832H121.998V26.5955C121.966 26.9287 122.011 27.2643 122.131 27.5802C122.251 27.896 122.442 28.1848 122.692 28.4273C122.942 28.6699 123.246 28.8606 123.582 28.9869C123.919 29.1133 124.281 29.1722 124.644 29.1599C125.121 29.2011 125.6 29.0993 126.009 28.8699C126.418 28.6405 126.736 28.2955 126.915 27.8865L128.832 27.8865ZM122.008 25.1843H126.925C126.943 24.8847 126.894 24.5849 126.78 24.3037C126.666 24.0225 126.491 23.766 126.264 23.5502C126.037 23.3344 125.765 23.1641 125.464 23.0499C125.162 22.9357 124.838 22.88 124.512 22.8865C124.184 22.8847 123.858 22.9428 123.553 23.0576C123.249 23.1723 122.973 23.3414 122.74 23.555C122.507 23.7686 122.322 24.0226 122.197 24.3023C122.071 24.5819 122.007 24.8817 122.008 25.1843V25.1843Z" fill="white"/>
<path d="M51.0934 8.78045C51.5167 8.75249 51.9414 8.81135 52.3369 8.95279C52.7325 9.09422 53.089 9.3147 53.3808 9.59832C53.6726 9.88195 53.8924 10.2216 54.0243 10.5929C54.1561 10.9642 54.1969 11.3578 54.1435 11.7453C54.1435 13.6515 53.0243 14.7473 51.0934 14.7473H48.752V8.78045H51.0934ZM49.7588 13.9035H50.9809C51.2834 13.9201 51.5861 13.8744 51.8669 13.7698C52.1478 13.6652 52.3998 13.5043 52.6046 13.2987C52.8093 13.0931 52.9617 12.8481 53.0507 12.5815C53.1396 12.3149 53.1628 12.0334 53.1187 11.7575C53.1596 11.4826 53.134 11.2028 53.0437 10.9382C52.9534 10.6735 52.8007 10.4305 52.5964 10.2266C52.3921 10.0227 52.1413 9.86285 51.862 9.75861C51.5827 9.65437 51.2818 9.60829 50.9809 9.62366H49.7588V13.9035Z" fill="white"/>
<path d="M55.2804 12.4938C55.2497 12.1979 55.2865 11.8994 55.3884 11.6173C55.4904 11.3352 55.6552 11.0759 55.8724 10.8559C56.0896 10.6359 56.3544 10.4602 56.6497 10.3399C56.9451 10.2196 57.2645 10.1575 57.5874 10.1575C57.9103 10.1575 58.2297 10.2196 58.5251 10.3399C58.8204 10.4602 59.0852 10.6359 59.3024 10.8559C59.5196 11.0759 59.6844 11.3352 59.7864 11.6173C59.8883 11.8994 59.9251 12.1979 59.8944 12.4938C59.9257 12.7901 59.8894 13.0891 59.7877 13.3716C59.686 13.6541 59.5212 13.9139 59.304 14.1343C59.0867 14.3547 58.8217 14.5309 58.5261 14.6514C58.2305 14.772 57.9107 14.8342 57.5874 14.8342C57.2641 14.8342 56.9443 14.772 56.6487 14.6514C56.3531 14.5309 56.0881 14.3547 55.8708 14.1343C55.6536 13.9139 55.4888 13.6541 55.3871 13.3716C55.2854 13.0891 55.2491 12.7901 55.2804 12.4938ZM58.9013 12.4938C58.9013 11.5178 58.425 10.947 57.589 10.947C56.7498 10.947 56.2777 11.5178 56.2777 12.4939C56.2777 13.4777 56.7498 14.0441 57.589 14.0441C58.425 14.0441 58.9013 13.4738 58.9013 12.4938H58.9013Z" fill="white"/>
<path d="M66.0279 14.7473H65.0264L64.0154 11.4309H63.939L62.9322 14.7473H61.9402L60.5918 10.2444H61.571L62.4473 13.6804H62.5195L63.5252 10.2444H64.4514L65.4571 13.6804H65.5335L66.4056 10.2444H67.371L66.0279 14.7473Z" fill="white"/>
<path d="M68.5049 10.2444H69.4342V10.9598H69.5064C69.6288 10.7028 69.8352 10.4875 70.0969 10.3437C70.3585 10.1999 70.6624 10.1348 70.9662 10.1575C71.2042 10.141 71.4432 10.1741 71.6655 10.2542C71.8878 10.3343 72.0876 10.4594 72.2502 10.6202C72.4128 10.7811 72.534 10.9735 72.6049 11.1833C72.6757 11.3932 72.6944 11.615 72.6594 11.8323V14.7473H71.694V12.0555C71.694 11.3318 71.3524 10.972 70.6384 10.972C70.4768 10.965 70.3154 10.9904 70.1655 11.0462C70.0155 11.102 69.8804 11.187 69.7694 11.2954C69.6585 11.4038 69.5743 11.533 69.5227 11.6741C69.4711 11.8153 69.4532 11.965 69.4703 12.1131V14.7474H68.5049L68.5049 10.2444Z" fill="white"/>
<path d="M74.1978 8.48657H75.1632V14.7473H74.1978V8.48657Z" fill="white"/>
<path d="M76.505 12.4939C76.4743 12.198 76.5111 11.8994 76.6131 11.6173C76.715 11.3353 76.8799 11.0759 77.0972 10.8559C77.3144 10.6359 77.5792 10.4602 77.8745 10.3399C78.1699 10.2196 78.4893 10.1575 78.8123 10.1575C79.1352 10.1575 79.4546 10.2196 79.75 10.3399C80.0453 10.4602 80.3101 10.6359 80.5273 10.8559C80.7446 11.0759 80.9095 11.3353 81.0114 11.6173C81.1134 11.8994 81.1502 12.198 81.1195 12.4939C81.1508 12.7902 81.1144 13.0892 81.0127 13.3717C80.911 13.6542 80.7462 13.914 80.5289 14.1344C80.3116 14.3548 80.0466 14.531 79.751 14.6515C79.4553 14.772 79.1356 14.8343 78.8123 14.8343C78.4889 14.8343 78.1691 14.772 77.8735 14.6515C77.5779 14.531 77.3129 14.3548 77.0956 14.1344C76.8783 13.914 76.7135 13.6542 76.6118 13.3717C76.5101 13.0892 76.4737 12.7902 76.505 12.4939ZM80.1259 12.4939C80.1259 11.5179 79.6496 10.9471 78.8136 10.9471C77.9744 10.9471 77.5023 11.5179 77.5023 12.4939C77.5023 13.4778 77.9744 14.0442 78.8136 14.0442C79.6496 14.0442 80.1259 13.4739 80.1259 12.4939H80.1259Z" fill="white"/>
<path d="M82.1362 13.4739C82.1362 12.6633 82.7919 12.196 83.9557 12.1296L85.2808 12.0593V11.6707C85.2808 11.1951 84.9392 10.9265 84.2793 10.9265C83.7403 10.9265 83.3669 11.1086 83.2597 11.427H82.3251C82.4237 10.6536 83.2141 10.1575 84.3238 10.1575C85.5503 10.1575 86.242 10.7195 86.242 11.6707V14.7473H85.3126V14.1145H85.2362C85.0812 14.3415 84.8635 14.5265 84.6053 14.6508C84.3472 14.775 84.0578 14.8339 83.7669 14.8215C83.5615 14.8412 83.3539 14.821 83.1576 14.7623C82.9612 14.7036 82.7804 14.6077 82.6267 14.4807C82.4731 14.3537 82.3501 14.1985 82.2656 14.0251C82.1811 13.8517 82.137 13.6639 82.1362 13.4739ZM85.2808 13.0891V12.7126L84.0862 12.783C83.4125 12.8245 83.107 13.0354 83.107 13.4324C83.107 13.8376 83.4889 14.0735 84.0141 14.0735C84.168 14.0878 84.3234 14.0735 84.4711 14.0314C84.6189 13.9893 84.7559 13.9203 84.8741 13.8285C84.9923 13.7366 85.0892 13.6238 85.1591 13.4968C85.2289 13.3698 85.2703 13.2311 85.2808 13.0891Z" fill="white"/>
<path d="M87.5107 12.4939C87.5107 11.0711 88.3054 10.1697 89.5413 10.1697C89.8471 10.1567 90.1505 10.2241 90.4161 10.364C90.6818 10.5039 90.8987 10.7105 91.0415 10.9597H91.1136V8.48657H92.079V14.7473H91.1539V14.0359H91.0775C90.9237 14.2834 90.6992 14.4874 90.4285 14.6259C90.1577 14.7644 89.8509 14.832 89.5413 14.8215C88.2969 14.8216 87.5107 13.9202 87.5107 12.4939ZM88.508 12.4939C88.508 13.449 88.9971 14.0237 89.8151 14.0237C90.6288 14.0237 91.1317 13.4407 91.1317 12.4978C91.1317 11.5593 90.6235 10.968 89.8151 10.968C89.0024 10.968 88.508 11.5466 88.508 12.4939H88.508Z" fill="white"/>
<path d="M96.0734 12.4938C96.0427 12.1979 96.0794 11.8994 96.1814 11.6173C96.2833 11.3352 96.4482 11.0759 96.6654 10.8559C96.8826 10.6359 97.1474 10.4602 97.4427 10.3399C97.738 10.2196 98.0574 10.1575 98.3804 10.1575C98.7033 10.1575 99.0227 10.2196 99.318 10.3399C99.6134 10.4602 99.8781 10.6359 100.095 10.8559C100.313 11.0759 100.477 11.3352 100.579 11.6173C100.681 11.8994 100.718 12.1979 100.687 12.4938C100.719 12.7901 100.682 13.0891 100.581 13.3716C100.479 13.6541 100.314 13.9139 100.097 14.1343C99.8797 14.3547 99.6147 14.5309 99.3191 14.6514C99.0234 14.772 98.7037 14.8342 98.3804 14.8342C98.057 14.8342 97.7373 14.772 97.4417 14.6514C97.146 14.5309 96.8811 14.3547 96.6638 14.1343C96.4465 13.9139 96.2818 13.6541 96.1801 13.3716C96.0784 13.0891 96.0421 12.7901 96.0734 12.4938ZM99.6943 12.4938C99.6943 11.5178 99.2179 10.947 98.382 10.947C97.5428 10.947 97.0707 11.5178 97.0707 12.4939C97.0707 13.4777 97.5428 14.0441 98.382 14.0441C99.218 14.0441 99.6943 13.4738 99.6943 12.4938Z" fill="white"/>
<path d="M101.983 10.2444H102.912V10.9598H102.984C103.107 10.7028 103.313 10.4875 103.575 10.3437C103.837 10.1999 104.14 10.1348 104.444 10.1575C104.682 10.141 104.921 10.1741 105.144 10.2542C105.366 10.3343 105.566 10.4594 105.728 10.6202C105.891 10.7811 106.012 10.9735 106.083 11.1833C106.154 11.3932 106.172 11.615 106.137 11.8323V14.7473H105.172V12.0555C105.172 11.3318 104.83 10.972 104.116 10.972C103.955 10.965 103.793 10.9904 103.643 11.0462C103.494 11.102 103.358 11.187 103.247 11.2954C103.137 11.4038 103.052 11.533 103.001 11.6741C102.949 11.8153 102.931 11.965 102.948 12.1131V14.7474H101.983V10.2444Z" fill="white"/>
<path d="M111.593 9.12329V10.2649H112.653V11.0134H111.593V13.3289C111.593 13.8005 111.804 14.0071 112.284 14.0071C112.407 14.0067 112.53 13.9999 112.653 13.9866V14.7268C112.479 14.7554 112.304 14.7705 112.127 14.7722C111.054 14.7722 110.626 14.4246 110.626 13.5564V11.0134H109.85V10.2649H110.626V9.12329H111.593Z" fill="white"/>
<path d="M113.971 8.48657H114.928V10.968H115.005C115.133 10.7087 115.345 10.4921 115.612 10.3478C115.879 10.2034 116.188 10.1383 116.496 10.1614C116.733 10.1495 116.97 10.1859 117.189 10.268C117.409 10.35 117.606 10.4757 117.767 10.636C117.928 10.7963 118.049 10.9874 118.12 11.1955C118.192 11.4037 118.212 11.6238 118.181 11.8401V14.7473H117.214V12.0593C117.214 11.3401 116.851 10.9758 116.168 10.9758C116.002 10.9633 115.836 10.9843 115.679 11.0373C115.523 11.0904 115.381 11.1742 115.264 11.283C115.147 11.3917 115.057 11.5227 115 11.6669C114.944 11.811 114.922 11.9648 114.937 12.1174V14.7473H113.971L113.971 8.48657Z" fill="white"/>
<path d="M123.81 13.5316C123.679 13.9431 123.395 14.2991 123.007 14.5372C122.62 14.7754 122.153 14.8805 121.69 14.8343C121.368 14.8421 121.048 14.7853 120.752 14.6678C120.456 14.5502 120.191 14.3748 119.976 14.1537C119.761 13.9326 119.601 13.671 119.507 13.3872C119.412 13.1034 119.386 12.8041 119.431 12.5101C119.388 12.2152 119.414 11.9153 119.508 11.6306C119.602 11.3459 119.761 11.0832 119.975 10.8601C120.189 10.637 120.452 10.4588 120.748 10.3376C121.043 10.2164 121.363 10.155 121.686 10.1575C123.047 10.1575 123.868 11.0135 123.868 12.4275V12.7376H120.414V12.7874C120.399 12.9527 120.421 13.119 120.48 13.2758C120.539 13.4325 120.633 13.5762 120.755 13.6977C120.878 13.8191 121.027 13.9157 121.193 13.9811C121.358 14.0464 121.537 14.0793 121.717 14.0774C121.948 14.103 122.182 14.0647 122.389 13.9675C122.596 13.8703 122.767 13.7185 122.881 13.5315L123.81 13.5316ZM120.414 12.0804H122.885C122.897 11.9293 122.875 11.7775 122.819 11.6348C122.764 11.492 122.677 11.3616 122.563 11.2517C122.45 11.1418 122.313 11.055 122.161 10.9969C122.009 10.9387 121.845 10.9104 121.681 10.9139C121.514 10.912 121.348 10.9408 121.193 10.9988C121.039 11.0567 120.898 11.1426 120.78 11.2513C120.662 11.36 120.569 11.4894 120.506 11.6318C120.443 11.7742 120.412 11.9267 120.414 12.0804H120.414Z" fill="white"/>
</svg>
