<svg width="25" height="24" viewBox="0 0 25 24" fill="none" xmlns="http://www.w3.org/2000/svg">
<g clip-path="url(#clip0_403_5533)">
<path d="M14.3335 20H10.3335V22H8.3335V20H5.3335C5.06828 20 4.81393 19.8946 4.62639 19.7071C4.43885 19.5196 4.3335 19.2652 4.3335 19V16H2.3335V14H4.3335V10H2.3335V8H4.3335V5C4.3335 4.73478 4.43885 4.48043 4.62639 4.29289C4.81393 4.10536 5.06828 4 5.3335 4H8.3335V2H10.3335V4H14.3335V2H16.3335V4H19.3335C19.5987 4 19.8531 4.10536 20.0406 4.29289C20.2281 4.48043 20.3335 4.73478 20.3335 5V8H22.3335V10H20.3335V14H22.3335V16H20.3335V19C20.3335 19.2652 20.2281 19.5196 20.0406 19.7071C19.8531 19.8946 19.5987 20 19.3335 20H16.3335V22H14.3335V20ZM7.3335 7V11H11.3335V7H7.3335Z" fill="#439F7E"/>
</g>
<defs>
<clipPath id="clip0_403_5533">
<rect width="24" height="24" fill="white" transform="translate(0.333496)"/>
</clipPath>
</defs>
</svg>
