<svg width="25" height="24" viewBox="0 0 25 24" fill="none" xmlns="http://www.w3.org/2000/svg">
<g clip-path="url(#clip0_403_2951)">
<path d="M17.6665 4C19.2578 4 20.7839 4.63214 21.9091 5.75736C23.0344 6.88258 23.6665 8.4087 23.6665 10V14C23.6665 15.5913 23.0344 17.1174 21.9091 18.2426C20.7839 19.3679 19.2578 20 17.6665 20H7.6665C6.0752 20 4.54908 19.3679 3.42386 18.2426C2.29864 17.1174 1.6665 15.5913 1.6665 14V10C1.6665 8.4087 2.29864 6.88258 3.42386 5.75736C4.54908 4.63214 6.0752 4 7.6665 4H17.6665ZM10.6665 9H8.6665V11H6.6665V13H8.6655L8.6665 15H10.6665L10.6655 13H12.6665V11H10.6665V9ZM18.6665 13H16.6665V15H18.6665V13ZM16.6665 9H14.6665V11H16.6665V9Z" fill="#BDE9C9"/>
</g>
<defs>
<clipPath id="clip0_403_2951">
<rect width="24" height="24" fill="white" transform="translate(0.666504)"/>
</clipPath>
</defs>
</svg>
