<svg width="25" height="24" viewBox="0 0 25 24" fill="none" xmlns="http://www.w3.org/2000/svg">
<g clip-path="url(#clip0_403_5543)">
<path d="M21.3335 3V21C21.3335 21.2652 21.2281 21.5196 21.0406 21.7071C20.8531 21.8946 20.5987 22 20.3335 22H4.3335C4.06828 22 3.81393 21.8946 3.62639 21.7071C3.43885 21.5196 3.3335 21.2652 3.3335 21V3C3.3335 2.73478 3.43885 2.48043 3.62639 2.29289C3.81393 2.10536 4.06828 2 4.3335 2H20.3335C20.5987 2 20.8531 2.10536 21.0406 2.29289C21.2281 2.48043 21.3335 2.73478 21.3335 3ZM5.3335 16V20H19.3335V16H5.3335ZM15.3335 17H17.3335V19H15.3335V17Z" fill="#FB637E"/>
</g>
<defs>
<clipPath id="clip0_403_5543">
<rect width="24" height="24" fill="white" transform="translate(0.333496)"/>
</clipPath>
</defs>
</svg>
