<svg width="25" height="24" viewBox="0 0 25 24" fill="none" xmlns="http://www.w3.org/2000/svg">
<g clip-path="url(#clip0_403_5538)">
<path d="M4.6665 12H7.6665C8.19694 12 8.70564 12.2107 9.08072 12.5858C9.45579 12.9609 9.6665 13.4696 9.6665 14V19C9.6665 19.5304 9.45579 20.0391 9.08072 20.4142C8.70564 20.7893 8.19694 21 7.6665 21H4.6665C4.13607 21 3.62736 20.7893 3.25229 20.4142C2.87722 20.0391 2.6665 19.5304 2.6665 19V12C2.6665 6.477 7.1435 2 12.6665 2C18.1895 2 22.6665 6.477 22.6665 12V19C22.6665 19.5304 22.4558 20.0391 22.0807 20.4142C21.7056 20.7893 21.1969 21 20.6665 21H17.6665C17.1361 21 16.6274 20.7893 16.2523 20.4142C15.8772 20.0391 15.6665 19.5304 15.6665 19V14C15.6665 13.4696 15.8772 12.9609 16.2523 12.5858C16.6274 12.2107 17.1361 12 17.6665 12H20.6665C20.6665 9.87827 19.8237 7.84344 18.3234 6.34315C16.8231 4.84285 14.7882 4 12.6665 4C10.5448 4 8.50994 4.84285 7.00965 6.34315C5.50936 7.84344 4.6665 9.87827 4.6665 12Z" fill="#461E0A"/>
</g>
<defs>
<clipPath id="clip0_403_5538">
<rect width="24" height="24" fill="white" transform="translate(0.666504)"/>
</clipPath>
</defs>
</svg>
