<svg width="25" height="24" viewBox="0 0 25 24" fill="none" xmlns="http://www.w3.org/2000/svg">
<g clip-path="url(#clip0_403_2992)">
<path d="M11.8075 2H13.5255C15.5395 2 16.6195 2.278 17.5975 2.801C18.5638 3.31249 19.354 4.10269 19.8655 5.069C20.3885 6.047 20.6665 7.127 20.6665 9.141V14.859C20.6665 16.873 20.3885 17.953 19.8655 18.931C19.354 19.8973 18.5638 20.6875 17.5975 21.199C16.6195 21.722 15.5395 22 13.5255 22H11.8065C9.7925 22 8.7125 21.722 7.7345 21.199C6.7682 20.6875 5.97799 19.8973 5.4665 18.931C4.9445 17.953 4.6665 16.873 4.6665 14.859V9.14C4.6665 7.126 4.9445 6.046 5.4675 5.068C5.97942 4.10192 6.76997 3.31206 7.7365 2.801C8.7135 2.278 9.7935 2 11.8075 2ZM11.6665 6V11H13.6665V6H11.6665Z" fill="#8CC8FA"/>
</g>
<defs>
<clipPath id="clip0_403_2992">
<rect width="24" height="24" fill="white" transform="translate(0.666504)"/>
</clipPath>
</defs>
</svg>
