<svg width="24" height="24" viewBox="0 0 24 24" fill="none" xmlns="http://www.w3.org/2000/svg">
<g clip-path="url(#clip0_403_1597)">
<path d="M10.9998 14V11H12.9998V14H17.9998C18.265 14 18.5193 14.1054 18.7069 14.2929C18.8944 14.4804 18.9998 14.7348 18.9998 15V21C18.9998 21.2652 18.8944 21.5196 18.7069 21.7071C18.5193 21.8946 18.265 22 17.9998 22H5.99977C5.73455 22 5.4802 21.8946 5.29266 21.7071C5.10512 21.5196 4.99977 21.2652 4.99977 21V15C4.99977 14.7348 5.10512 14.4804 5.29266 14.2929C5.4802 14.1054 5.73455 14 5.99977 14H10.9998ZM2.50977 8.837C3.83477 4.864 7.58377 2 11.9998 2C16.4158 2 20.1658 4.864 21.4898 8.837L19.5918 9.469C19.0605 7.87573 18.0414 6.49 16.6788 5.50805C15.3162 4.5261 13.6793 3.99771 11.9998 3.99771C10.3202 3.99771 8.68329 4.5261 7.32073 5.50805C5.95817 6.49 4.93907 7.87573 4.40777 9.469L2.51077 8.837H2.50977ZM6.30577 10.102C6.70462 8.90741 7.46909 7.86853 8.49096 7.13239C9.51284 6.39625 10.7404 6.00015 11.9998 6.00015C13.2592 6.00015 14.4867 6.39625 15.5086 7.13239C16.5304 7.86853 17.2949 8.90741 17.6938 10.102L15.7958 10.735C15.5299 9.93861 15.0202 9.24602 14.339 8.75526C13.6577 8.2645 12.8394 8.00043 11.9998 8.00043C11.1602 8.00043 10.3418 8.2645 9.66056 8.75526C8.97931 9.24602 8.46967 9.93861 8.20377 10.735L6.30577 10.102Z" fill="#00249C"/>
</g>
<defs>
<clipPath id="clip0_403_1597">
<rect width="24" height="24" fill="white"/>
</clipPath>
</defs>
</svg>
