<svg width="25" height="24" viewBox="0 0 25 24" fill="none" xmlns="http://www.w3.org/2000/svg">
<g clip-path="url(#clip0_403_2999)">
<path d="M15.7475 5H21.3415C21.8895 5 22.3335 5.445 22.3335 6V20C22.3335 20.552 21.8785 21 21.3415 21H3.32551C3.19464 20.9997 3.06511 20.9736 2.94435 20.9232C2.82359 20.8727 2.71398 20.799 2.62181 20.706C2.52965 20.6131 2.45673 20.5029 2.40726 20.3818C2.35779 20.2606 2.33272 20.1309 2.33351 20V6C2.33351 5.448 2.78851 5 3.32551 5H8.91951L6.38351 2.464L7.79751 1.05L11.7475 5H12.9195L16.8695 1.05L18.2835 2.464L15.7475 5Z" fill="#F6A973"/>
</g>
<defs>
<clipPath id="clip0_403_2999">
<rect width="24" height="24" fill="white" transform="translate(0.333496)"/>
</clipPath>
</defs>
</svg>
