<svg width="24" height="24" viewBox="0 0 24 24" fill="none" xmlns="http://www.w3.org/2000/svg">
<g clip-path="url(#clip0_220_8811)">
<path d="M3.99984 6.414L0.756836 3.172L2.17184 1.757L5.41384 5H20.6558C20.8117 4.99999 20.9654 5.03641 21.1047 5.10637C21.244 5.17632 21.365 5.27786 21.4581 5.4029C21.5511 5.52793 21.6137 5.67298 21.6407 5.82649C21.6678 5.97999 21.6586 6.13769 21.6138 6.287L19.2138 14.287C19.1521 14.4931 19.0255 14.6738 18.853 14.8022C18.6804 14.9307 18.471 15 18.2558 15H5.99984V17H16.9998V19H4.99984C4.73462 19 4.48027 18.8946 4.29273 18.7071C4.10519 18.5196 3.99984 18.2652 3.99984 18V6.414ZM5.99984 7V13H17.5118L19.3118 7H5.99984ZM5.49984 23C5.10201 23 4.72048 22.842 4.43918 22.5607C4.15787 22.2794 3.99984 21.8978 3.99984 21.5C3.99984 21.1022 4.15787 20.7206 4.43918 20.4393C4.72048 20.158 5.10201 20 5.49984 20C5.89766 20 6.27919 20.158 6.5605 20.4393C6.8418 20.7206 6.99984 21.1022 6.99984 21.5C6.99984 21.8978 6.8418 22.2794 6.5605 22.5607C6.27919 22.842 5.89766 23 5.49984 23ZM17.4998 23C17.102 23 16.7205 22.842 16.4392 22.5607C16.1579 22.2794 15.9998 21.8978 15.9998 21.5C15.9998 21.1022 16.1579 20.7206 16.4392 20.4393C16.7205 20.158 17.102 20 17.4998 20C17.8977 20 18.2792 20.158 18.5605 20.4393C18.8418 20.7206 18.9998 21.1022 18.9998 21.5C18.9998 21.8978 18.8418 22.2794 18.5605 22.5607C18.2792 22.842 17.8977 23 17.4998 23Z" fill="#09121F"/>
</g>
<defs>
<clipPath id="clip0_220_8811">
<rect width="24" height="24" fill="white"/>
</clipPath>
</defs>
</svg>
